<svg xmlns="http://www.w3.org/2000/svg" viewBox="0 0 24 28" fill="none">
  <!-- Stem -->
  <path d="M12 28V12" stroke="#5C6B55" stroke-width="1.3" stroke-linecap="round"/>
  <!-- Left leaf on stem -->
  <path d="M12 22c-3-1-5-3-4.5-5.5S12 16 12 16" fill="#5C6B55" opacity="0.2" stroke="#5C6B55" stroke-width="0.8" stroke-linecap="round" stroke-linejoin="round"/>
  <!-- Right leaf on stem -->
  <path d="M12 19c3-1 5-2.5 4.5-5S12 14 12 14" fill="#5C6B55" opacity="0.2" stroke="#5C6B55" stroke-width="0.8" stroke-linecap="round" stroke-linejoin="round"/>
  <!-- Petals -->
  <circle cx="12" cy="7" r="2.8" fill="#5C6B55" opacity="0.15"/>
  <ellipse cx="12" cy="3.5" rx="2" ry="3" fill="none" stroke="#5C6B55" stroke-width="1" stroke-linecap="round"/>
  <ellipse cx="8.5" cy="5.5" rx="2" ry="3" transform="rotate(-55 8.5 5.5)" fill="none" stroke="#5C6B55" stroke-width="1" stroke-linecap="round"/>
  <ellipse cx="15.5" cy="5.5" rx="2" ry="3" transform="rotate(55 15.5 5.5)" fill="none" stroke="#5C6B55" stroke-width="1" stroke-linecap="round"/>
  <ellipse cx="9.5" cy="9" rx="2" ry="3" transform="rotate(-20 9.5 9)" fill="none" stroke="#5C6B55" stroke-width="1" stroke-linecap="round"/>
  <ellipse cx="14.5" cy="9" rx="2" ry="3" transform="rotate(20 14.5 9)" fill="none" stroke="#5C6B55" stroke-width="1" stroke-linecap="round"/>
  <!-- Center -->
  <circle cx="12" cy="7" r="1.8" fill="#5C6B55" opacity="0.3"/>
</svg>
