<svg xmlns="http://www.w3.org/2000/svg" viewBox="0 0 24 24" fill="none">
  <path d="M12 2C6.5 6.5 4 11 4 15c0 3 2.5 5.5 5.5 5.5 1.5 0 2.5-.5 2.5-.5s1 .5 2.5.5C17.5 20.5 20 18 20 15c0-4-2.5-8.5-8-13z" fill="#5C6B55" opacity="0.15"/>
  <path d="M12 3C7.5 7 5.5 11 5.5 14.5c0 2.5 2 4 3.5 4 1 0 2-.5 3-1.5 1 1 2 1.5 3 1.5 1.5 0 3.5-1.5 3.5-4C18.5 11 16.5 7 12 3z" stroke="#5C6B55" stroke-width="1.2" fill="none" stroke-linecap="round" stroke-linejoin="round"/>
  <path d="M12 6v12" stroke="#5C6B55" stroke-width="1" stroke-linecap="round"/>
  <path d="M12 9c-2 1.5-3 3-3 4.5" stroke="#5C6B55" stroke-width="0.8" stroke-linecap="round" fill="none"/>
  <path d="M12 11c2 1.5 3 3 3 4" stroke="#5C6B55" stroke-width="0.8" stroke-linecap="round" fill="none"/>
</svg>
