<?xml version="1.0" standalone="no"?>
<!DOCTYPE svg PUBLIC "-//W3C//DTD SVG 20010904//EN"
 "http://www.w3.org/TR/2001/REC-SVG-20010904/DTD/svg10.dtd">
<svg version="1.0" xmlns="http://www.w3.org/2000/svg"
 width="266.000000pt" height="400.000000pt" viewBox="0 0 266.000000 400.000000"
 preserveAspectRatio="xMidYMid meet">
<metadata>
Created by potrace 1.16, written by Peter Selinger 2001-2019
</metadata>
<g transform="translate(0.000000,400.000000) scale(0.100000,-0.100000)"
fill="#5c6b55" stroke="none">
<path d="M1236 3294 c-11 -28 -6 -80 9 -100 30 -39 10 -60 -27 -27 -17 15 -18
15 -18 -11 0 -15 6 -39 14 -54 18 -34 56 -70 56 -52 0 6 11 25 25 42 14 16 25
35 25 41 0 7 -8 0 -18 -15 -9 -16 -20 -28 -24 -28 -15 0 -8 38 12 61 17 21 21
22 30 9 8 -13 10 -13 10 2 0 25 -21 34 -35 15 -21 -29 -25 -19 -19 36 8 70
-21 130 -40 81z m34 -44 c0 -20 -5 -30 -15 -30 -10 0 -15 10 -15 30 0 20 5 30
15 30 10 0 15 -10 15 -30z m-26 -133 c15 -24 -3 -35 -20 -13 -8 11 -14 24 -14
29 0 13 22 3 34 -16z"/>
<path d="M1191 3008 c0 -18 3 -27 6 -20 8 20 29 14 41 -13 16 -34 15 -45 -1
-45 -8 0 -19 10 -25 23 -6 12 -11 17 -11 10 -1 -6 10 -25 24 -41 19 -22 25
-41 25 -76 0 -49 -12 -59 -30 -26 -13 23 -40 27 -40 5 0 -8 8 -15 19 -15 18 0
51 -52 51 -79 0 -18 -18 -12 -34 11 -9 12 -16 18 -16 12 0 -6 11 -27 24 -47
13 -19 26 -43 29 -54 3 -12 5 -9 6 10 0 15 5 27 9 27 11 0 52 74 51 91 0 8 -7
-3 -16 -23 -18 -45 -49 -53 -38 -10 10 42 33 72 50 66 16 -7 19 4 7 24 -7 9
-13 8 -27 -8 -25 -28 -35 -25 -35 11 0 18 11 44 29 67 17 20 33 51 36 67 5 24
3 22 -14 -12 -19 -40 -41 -57 -41 -32 0 23 33 79 46 79 8 0 14 7 14 15 0 24
-19 18 -32 -10 -9 -20 -16 -23 -37 -18 -14 3 -34 14 -44 24 -24 26 -27 24 -26
-13z"/>
<path d="M1624 2775 c-4 -8 -12 -15 -20 -15 -7 0 -18 -9 -24 -19 -14 -28 -12
-38 3 -16 9 11 16 14 21 7 9 -15 -4 -42 -20 -42 -8 0 -14 -10 -14 -24 0 -14
-4 -28 -10 -31 -15 -9 -12 -25 4 -25 8 0 16 -7 20 -15 3 -10 -1 -15 -13 -15
-14 0 -18 -7 -17 -29 1 -16 5 -27 9 -24 10 6 37 -16 37 -29 0 -6 -8 -8 -19 -5
-14 3 -17 0 -14 -14 3 -10 9 -17 13 -14 11 7 46 -22 37 -31 -4 -5 -17 -3 -27
4 -18 11 -20 9 -20 -21 0 -18 5 -38 12 -45 8 -8 8 -15 -3 -28 -12 -14 -10 -19
14 -38 30 -24 34 -36 12 -36 -23 0 -18 -37 7 -54 12 -9 35 -16 49 -16 18 0 29
-6 32 -17 3 -11 5 -7 6 10 0 15 5 27 10 27 19 0 71 52 71 71 0 14 -7 19 -26
19 -18 0 -25 4 -21 14 4 9 0 12 -13 9 -15 -4 -18 -1 -13 16 6 23 28 28 36 9 3
-7 5 -4 6 7 0 11 -4 29 -9 40 -7 18 -8 19 -15 3 -8 -20 -35 -24 -35 -5 0 22
18 40 34 34 19 -8 20 -6 2 27 -10 21 -15 23 -19 11 -9 -22 -27 -18 -27 6 0 12
8 23 20 26 24 6 24 5 5 49 -8 19 -12 41 -8 49 4 11 1 13 -11 9 -11 -4 -16 -1
-16 11 0 11 5 15 15 12 11 -5 13 0 8 26 -8 45 -33 83 -43 67 -9 -15 -30 -5
-30 16 0 8 9 14 20 14 24 0 27 15 5 24 -9 3 -18 -1 -21 -9z m56 -91 c0 -8 -7
-14 -15 -14 -15 0 -21 21 -9 33 10 9 24 -2 24 -19z m-42 -2 c2 -7 -3 -12 -12
-12 -9 0 -16 7 -16 16 0 17 22 14 28 -4z m-25 -47 c7 -16 -8 -29 -23 -20 -15
9 -12 35 4 35 8 0 16 -7 19 -15z m42 -10 c0 -10 -6 -20 -12 -22 -8 -3 -13 5
-13 22 0 17 5 25 13 23 6 -3 12 -13 12 -23z m-35 -76 c0 -24 -23 -21 -28 4 -2
10 3 17 12 17 10 0 16 -9 16 -21z m36 -16 c-11 -11 -19 6 -11 24 8 17 8 17 12
0 3 -10 2 -21 -1 -24z m42 10 c-5 -25 -28 -28 -28 -4 0 12 6 21 16 21 9 0 14
-7 12 -17z m-48 -63 c9 -16 8 -22 -5 -26 -19 -8 -20 -6 -29 24 -9 29 19 31 34
2z m30 -61 c0 -24 -23 -21 -28 4 -2 10 3 17 12 17 10 0 16 -9 16 -21z m-58
-26 c21 -18 23 -33 6 -33 -14 0 -48 30 -48 42 0 13 22 9 42 -9z m68 -58 c0
-29 -15 -33 -29 -6 -11 20 -5 31 16 31 7 0 13 -11 13 -25z m-65 -15 c3 -5 -1
-10 -9 -10 -8 0 -18 5 -21 10 -3 6 1 10 9 10 8 0 18 -4 21 -10z m145 -35 c0
-13 -21 -35 -33 -35 -5 0 -6 7 -3 16 5 14 4 15 -9 4 -18 -15 -30 -7 -22 14 7
17 67 18 67 1z m-82 -18 c2 -10 -3 -17 -12 -17 -10 0 -16 9 -16 21 0 24 23 21
28 -4z m-37 -28 l24 -20 -34 5 c-40 7 -45 11 -36 25 9 16 20 14 46 -10z"/>
<path d="M1177 2643 c-4 -3 -7 -16 -6 -27 0 -12 3 -15 6 -8 2 6 9 12 14 12 11
0 39 -54 39 -75 0 -26 -20 -16 -35 18 -8 17 -14 25 -15 16 0 -8 14 -36 30 -62
33 -52 41 -123 16 -133 -8 -3 -11 -15 -8 -30 5 -28 -12 -32 -27 -6 -6 9 -11
12 -11 5 0 -6 11 -25 25 -41 29 -35 37 -119 11 -109 -13 5 -13 1 0 -35 17 -49
17 -48 0 -48 -8 0 -21 17 -29 38 -9 20 -16 31 -16 24 -1 -15 26 -71 45 -92 7
-8 15 -42 17 -75 l3 -60 2 66 c1 46 7 71 18 79 8 8 20 23 25 34 9 19 9 20 -4
4 -8 -10 -19 -18 -26 -18 -13 0 -14 2 -1 34 6 17 6 26 0 26 -6 0 -10 22 -10
48 0 37 5 54 21 68 21 19 49 66 49 81 -1 4 -10 -9 -21 -29 -21 -40 -39 -50
-39 -20 0 21 36 82 49 82 5 0 12 -6 14 -12 3 -7 6 -1 6 15 1 34 -13 35 -35 2
-9 -14 -20 -25 -25 -25 -16 0 -10 87 7 101 16 13 44 62 44 76 -1 4 -8 -4 -16
-19 -8 -16 -21 -28 -29 -28 -14 0 -14 4 -1 35 16 36 12 41 -31 36 -6 -1 -14 7
-18 18 -7 23 -29 43 -38 34z"/>
<path d="M1303 2638 c-21 -28 -24 -38 -9 -32 8 3 16 -2 19 -13 3 -10 5 -1 6
20 1 40 -1 44 -16 25z"/>
<path d="M675 2454 c-3 -20 -4 -39 -1 -42 3 -3 6 2 6 11 0 26 20 20 21 -5 0
-13 3 -17 6 -10 7 18 -6 82 -16 82 -5 0 -12 -16 -16 -36z"/>
<path d="M1160 2429 c0 -13 4 -18 12 -13 6 4 17 -1 25 -11 18 -26 16 -4 -3 23
-19 28 -34 28 -34 1z"/>
<path d="M700 2302 c0 -14 -6 -22 -16 -22 -13 0 -15 -6 -9 -27 5 -16 11 -46
14 -68 6 -35 8 -29 14 44 4 46 5 86 2 89 -3 3 -5 -4 -5 -16z"/>
<path d="M814 2279 c-14 -22 -24 -43 -21 -45 2 -2 10 7 17 21 7 14 22 25 32
25 11 0 18 7 18 20 0 32 -18 24 -46 -21z"/>
<path d="M841 2244 c0 -11 3 -14 6 -6 3 7 2 16 -1 19 -3 4 -6 -2 -5 -13z"/>
<path d="M1161 2223 c1 -19 3 -22 6 -10 3 12 10 16 20 13 13 -5 14 -4 3 9 -19
23 -30 18 -29 -12z"/>
<path d="M1283 2230 c-11 -16 -10 -18 1 -14 8 3 16 -2 19 -13 3 -10 5 -4 6 15
1 36 -8 41 -26 12z"/>
<path d="M550 2177 c0 -10 5 -28 11 -39 9 -16 13 -18 19 -8 8 14 15 8 90 -80
20 -23 20 -23 10 -2 -6 12 -38 51 -70 85 -42 44 -59 57 -60 44z"/>
<path d="M816 2175 c-9 -26 -7 -32 5 -12 6 10 9 21 6 23 -2 3 -7 -2 -11 -11z"/>
<path d="M1683 2115 c0 -22 2 -30 4 -17 2 12 2 30 0 40 -3 9 -5 -1 -4 -23z"/>
<path d="M751 2124 c0 -11 3 -14 6 -6 3 7 2 16 -1 19 -3 4 -6 -2 -5 -13z"/>
<path d="M785 2106 c-15 -27 -22 -33 -32 -24 -10 8 -13 6 -13 -6 0 -19 -16
-21 -24 -3 -3 6 -3 -3 0 -20 4 -26 2 -33 -10 -33 -10 0 -13 -6 -9 -16 11 -29
-32 2 -68 48 -43 57 -54 68 -40 41 6 -13 45 -59 87 -103 l75 -81 -7 38 c-10
55 -11 54 31 121 21 34 36 65 33 67 -3 3 -13 -10 -23 -29z"/>
<path d="M701 2114 c0 -11 3 -14 6 -6 3 7 2 16 -1 19 -3 4 -6 -2 -5 -13z"/>
<path d="M880 1992 c-22 -38 -40 -72 -40 -78 0 -5 14 15 31 44 20 34 36 51 45
48 10 -4 14 3 14 24 0 17 -2 30 -5 30 -2 0 -22 -31 -45 -68z"/>
<path d="M2066 2044 c-4 -9 -4 -19 -1 -22 3 -3 5 0 5 6 0 7 7 12 15 12 27 0
15 -158 -13 -168 -9 -3 -12 16 -12 68 0 60 -2 70 -13 61 -11 -8 -16 -5 -25 14
-6 14 -18 25 -27 25 -22 0 -19 -18 5 -25 18 -6 50 -84 50 -123 0 -25 -25 -6
-46 36 -13 25 -24 37 -27 29 -3 -9 -16 -12 -36 -9 -17 2 -31 0 -31 -4 0 -5 12
-10 26 -10 24 -2 84 -48 84 -66 0 -19 -42 -6 -75 23 -19 17 -35 27 -35 21 0
-5 7 -16 16 -23 15 -12 13 -15 -22 -25 -54 -15 -60 -49 -10 -58 32 -6 52 -26
26 -26 -5 0 -10 -4 -10 -9 0 -4 21 2 47 15 88 45 114 25 33 -25 -53 -33 -85
-39 -93 -18 -3 6 -6 2 -6 -10 -1 -30 22 -30 78 3 25 13 50 23 56 20 7 -2 17 6
23 20 8 16 17 22 28 17 12 -4 14 -14 9 -42 -4 -23 -3 -31 4 -22 5 7 14 11 20
7 7 -5 9 3 4 25 -6 29 -5 31 15 20 28 -15 62 -60 62 -82 0 -27 -35 -24 -54 3
-9 12 -16 18 -16 13 0 -6 9 -21 19 -34 24 -31 55 -25 59 13 3 22 8 27 22 23
11 -3 25 1 31 9 10 12 9 13 -5 8 -10 -4 -33 5 -59 22 -49 32 -34 44 22 17 22
-11 37 -15 35 -9 -2 6 6 16 18 21 29 13 33 29 12 49 -15 16 -15 18 2 37 16 17
16 21 3 35 -12 12 -21 13 -44 4 -37 -14 -42 -7 -16 26 11 15 21 33 21 40 0 19
-20 28 -33 15 -6 -6 -19 -11 -29 -11 -10 0 -18 -7 -18 -15 0 -9 -7 -30 -15
-48 -8 -18 -10 -23 -3 -13 35 53 67 81 78 69 9 -8 2 -22 -31 -57 -23 -26 -48
-45 -54 -42 -7 2 -18 -1 -24 -7 -21 -21 -21 1 1 58 13 35 29 60 40 63 10 2 18
8 18 13 0 14 -20 10 -38 -8 -16 -16 -17 -15 -20 3 -7 49 -13 64 -26 64 -8 0
-17 -7 -20 -16z m203 -153 c18 -12 -28 -37 -84 -46 -38 -6 -39 -6 -20 10 18
16 73 44 85 44 3 1 11 -3 19 -8z m-257 -59 c9 -9 -5 -12 -59 -12 -67 0 -99 11
-71 24 21 9 118 0 130 -12z m242 -8 c34 -13 14 -24 -43 -24 -90 0 -89 24 1 29
14 0 33 -2 42 -5z"/>
<path d="M1510 2008 c0 -31 3 -39 10 -28 11 18 21 9 37 -33 6 -18 12 -25 12
-17 1 17 -45 120 -54 120 -3 0 -5 -19 -5 -42z"/>
<path d="M1672 2030 c0 -14 2 -19 5 -12 2 6 2 18 0 25 -3 6 -5 1 -5 -13z"/>
<path d="M1783 1957 c-33 -34 -77 -89 -98 -122 -48 -75 -44 -72 -55 -55 -8 12
-10 10 -10 -7 0 -23 -33 -48 -50 -38 -6 3 -10 13 -10 22 0 9 -3 14 -6 10 -3
-3 1 -27 10 -53 9 -26 16 -61 16 -77 l0 -30 28 36 c15 19 56 71 92 115 36 44
74 95 84 114 25 45 12 29 -64 -74 -36 -48 -71 -88 -77 -88 -20 0 -16 10 31 90
71 121 194 243 141 140 -9 -18 -12 -29 -7 -26 13 8 47 95 40 101 -3 3 -32 -23
-65 -58z"/>
<path d="M1661 1964 c0 -11 3 -14 6 -6 3 7 2 16 -1 19 -3 4 -6 -2 -5 -13z"/>
<path d="M882 1895 c-17 -37 -14 -45 4 -12 9 16 14 31 11 33 -2 2 -9 -7 -15
-21z"/>
<path d="M1651 1904 c0 -11 3 -14 6 -6 3 7 2 16 -1 19 -3 4 -6 -2 -5 -13z"/>
<path d="M1571 1894 c0 -11 3 -14 6 -6 3 7 2 16 -1 19 -3 4 -6 -2 -5 -13z"/>
<path d="M826 1885 c-3 -9 -6 -22 -5 -28 0 -7 5 -1 10 12 5 13 8 26 5 28 -2 2
-6 -3 -10 -12z"/>
<path d="M1243 1865 c0 -22 2 -30 4 -17 2 12 2 30 0 40 -3 9 -5 -1 -4 -23z"/>
<path d="M1521 1884 c0 -11 3 -14 6 -6 3 7 2 16 -1 19 -3 4 -6 -2 -5 -13z"/>
<path d="M751 1874 c0 -11 3 -14 6 -6 3 7 2 16 -1 19 -3 4 -6 -2 -5 -13z"/>
<path d="M1641 1854 c0 -11 3 -14 6 -6 3 7 2 16 -1 19 -3 4 -6 -2 -5 -13z"/>
<path d="M1582 1840 c0 -14 2 -19 5 -12 2 6 2 18 0 25 -3 6 -5 1 -5 -13z"/>
<path d="M843 1815 c-9 -19 -19 -32 -22 -30 -4 2 -14 -3 -24 -10 -16 -12 -16
-17 -2 -80 9 -37 14 -70 11 -73 -3 -3 -16 3 -28 14 -19 16 -20 16 -9 1 8 -9
11 -20 8 -23 -10 -11 -85 47 -116 91 -18 25 -35 45 -38 45 -6 0 -1 -7 49 -71
21 -25 64 -64 97 -85 34 -21 61 -46 62 -54 0 -10 2 -11 5 -3 3 7 -2 40 -10 73
-22 85 -20 106 14 178 16 34 27 62 24 62 -2 0 -12 -16 -21 -35z"/>
<path d="M1300 1783 c-26 -78 -36 -89 -43 -45 -2 15 -2 -13 1 -63 2 -49 8 -94
13 -100 5 -5 9 -1 9 12 0 12 11 70 25 129 31 129 28 167 -5 67z"/>
<path d="M570 1830 c0 -6 10 -24 22 -40 16 -22 24 -26 30 -18 5 9 27 -6 74
-52 58 -56 62 -58 31 -19 -53 66 -157 152 -157 129z"/>
<path d="M811 1824 c0 -11 3 -14 6 -6 3 7 2 16 -1 19 -3 4 -6 -2 -5 -13z"/>
<path d="M993 1728 c-6 -7 -20 -33 -32 -58 -13 -28 -15 -36 -5 -22 9 12 22 22
29 22 7 0 15 15 18 33 5 37 4 42 -10 25z"/>
<path d="M2011 1700 c-1 -8 -4 -24 -7 -35 -4 -17 -1 -21 21 -20 15 0 30 7 35
16 8 13 5 15 -14 12 -19 -4 -25 0 -29 18 -2 13 -5 17 -6 9z"/>
<path d="M1760 1626 c0 -19 4 -24 16 -19 19 7 87 -57 105 -99 6 -16 14 -27 16
-24 14 13 -78 135 -119 157 -15 8 -18 6 -18 -15z"/>
<path d="M1991 1614 c0 -11 3 -14 6 -6 3 7 2 16 -1 19 -3 4 -6 -2 -5 -13z"/>
<path d="M1327 1593 c-21 -39 -21 -43 -2 -43 15 0 30 40 23 62 -3 8 -12 0 -21
-19z"/>
<path d="M916 1585 c-9 -26 -7 -32 5 -12 6 10 9 21 6 23 -2 3 -7 -2 -11 -11z"/>
<path d="M1170 1580 c0 -37 26 -95 43 -96 9 -1 17 0 17 3 0 5 -36 74 -49 93
-10 13 -11 13 -11 0z"/>
<path d="M932 1515 c-12 -25 -27 -45 -33 -45 -6 0 -17 -7 -25 -15 -13 -12 -13
-21 0 -67 l14 -53 1 42 c1 29 13 64 37 108 20 36 34 68 32 70 -2 3 -14 -16
-26 -40z"/>
<path d="M1561 1544 c0 -11 3 -14 6 -6 3 7 2 16 -1 19 -3 4 -6 -2 -5 -13z"/>
<path d="M2100 1479 c-46 -35 -95 -80 -109 -99 -20 -26 -10 -20 39 25 67 61
115 93 126 83 6 -7 -30 -80 -60 -121 -29 -39 -144 -120 -161 -113 -8 3 -17 0
-21 -6 -4 -7 -9 -6 -14 2 -4 6 -10 -12 -14 -40 -4 -29 -5 -55 -1 -58 3 -3 5 4
5 16 0 14 25 38 84 81 46 33 98 77 115 96 35 40 104 171 99 187 -2 6 -42 -18
-88 -53z"/>
<path d="M1283 1493 c-7 -2 -13 -18 -13 -35 0 -21 -4 -29 -14 -25 -12 5 -12
-1 0 -40 18 -58 18 -66 -1 -59 -18 7 -18 5 -4 -31 7 -15 15 -65 18 -110 5 -65
3 -83 -7 -83 -8 0 -11 -7 -8 -17 15 -52 17 -73 8 -73 -6 0 -16 8 -21 18 -17
28 -12 7 9 -43 11 -26 20 -62 20 -80 l0 -33 -142 -4 c-79 -2 -149 0 -155 5 -7
5 -14 24 -14 41 -2 28 -2 27 -8 -9 l-6 -40 -115 -13 c-144 -15 -270 -38 -284
-52 -21 -21 7 -23 101 -7 183 31 268 38 538 44 268 5 590 -6 812 -29 107 -11
144 -7 114 12 -17 10 -149 30 -201 30 l-40 0 -2 63 -2 62 -3 -59 -4 -59 -182
7 c-153 5 -184 9 -194 23 -12 16 -13 16 -13 0 0 -16 -10 -17 -92 -15 l-93 3
-3 39 c-3 39 11 168 24 214 5 18 3 21 -11 16 -15 -6 -16 -3 -10 27 3 19 9 42
11 52 3 9 1 17 -5 17 -16 0 -13 90 3 138 13 36 13 40 0 35 -16 -6 -17 1 -5 45
5 17 9 32 8 31 -1 0 -8 -3 -14 -6z"/>
<path d="M1800 1496 c0 -12 57 -89 84 -115 15 -13 26 -31 27 -40 0 -9 7 0 14
19 18 48 18 48 -12 44 -32 -3 -46 7 -85 60 -15 21 -28 36 -28 32z"/>
<path d="M674 1475 c17 -45 113 -169 176 -227 69 -63 72 -65 66 -36 -3 17 -6
36 -6 43 0 8 -11 11 -32 9 -23 -3 -39 2 -56 18 -25 24 -112 141 -112 152 0 19
31 -1 79 -51 30 -32 49 -49 44 -38 -6 11 -40 48 -76 83 -63 60 -95 78 -83 47z"/>
<path d="M1541 1464 c0 -11 3 -14 6 -6 3 7 2 16 -1 19 -3 4 -6 -2 -5 -13z"/>
<path d="M1901 1444 c0 -11 3 -14 6 -6 3 7 2 16 -1 19 -3 4 -6 -2 -5 -13z"/>
<path d="M1531 1424 c0 -11 3 -14 6 -6 3 7 2 16 -1 19 -3 4 -6 -2 -5 -13z"/>
<path d="M1014 1394 c-8 -20 -13 -39 -10 -42 3 -3 6 0 6 6 0 21 18 13 23 -10
2 -13 5 1 6 30 0 28 -1 52 -5 52 -3 0 -12 -16 -20 -36z"/>
<path d="M1628 1387 c-22 -32 -78 -145 -78 -154 1 -4 17 22 36 60 35 68 49 81
57 50 3 -10 5 1 6 25 0 23 -1 42 -3 42 -2 0 -10 -10 -18 -23z"/>
<path d="M1521 1374 c0 -11 3 -14 6 -6 3 7 2 16 -1 19 -3 4 -6 -2 -5 -13z"/>
<path d="M1327 1325 c-21 -43 -20 -42 -2 -42 9 0 17 14 21 34 9 47 1 50 -19 8z"/>
<path d="M991 1324 c0 -11 3 -14 6 -6 3 7 2 16 -1 19 -3 4 -6 -2 -5 -13z"/>
<path d="M1511 1324 c0 -11 3 -14 6 -6 3 7 2 16 -1 19 -3 4 -6 -2 -5 -13z"/>
<path d="M850 1300 c6 -11 13 -20 16 -20 2 0 0 9 -6 20 -6 11 -13 20 -16 20
-2 0 0 -9 6 -20z"/>
<path d="M891 1304 c0 -11 3 -14 6 -6 3 7 2 16 -1 19 -3 4 -6 -2 -5 -13z"/>
<path d="M1940 1299 c-7 -11 -10 -23 -7 -25 2 -2 9 7 15 21 14 30 7 33 -8 4z"/>
<path d="M1901 1294 c0 -11 3 -14 6 -6 3 7 2 16 -1 19 -3 4 -6 -2 -5 -13z"/>
<path d="M981 1284 c0 -11 3 -14 6 -6 3 7 2 16 -1 19 -3 4 -6 -2 -5 -13z"/>
<path d="M1502 1265 c0 -16 2 -22 5 -12 2 9 2 23 0 30 -3 6 -5 -1 -5 -18z"/>
<path d="M1021 1254 c0 -11 3 -14 6 -6 3 7 2 16 -1 19 -3 4 -6 -2 -5 -13z"/>
<path d="M971 1234 c0 -11 3 -14 6 -6 3 7 2 16 -1 19 -3 4 -6 -2 -5 -13z"/>
<path d="M1190 1199 c0 -22 5 -32 20 -36 11 -3 20 -10 20 -16 0 -6 3 -8 6 -5
6 6 -33 88 -41 88 -3 0 -5 -14 -5 -31z"/>
<path d="M1011 1204 c0 -11 3 -14 6 -6 3 7 2 16 -1 19 -3 4 -6 -2 -5 -13z"/>
<path d="M1492 1190 c0 -19 2 -27 5 -17 2 9 2 25 0 35 -3 9 -5 1 -5 -18z"/>
<path d="M961 1131 c-1 -45 -4 -52 -17 -47 -14 5 -16 1 -10 -31 3 -21 6 -49 6
-63 1 -14 11 7 25 50 13 41 20 77 16 80 -5 3 -11 19 -14 35 -2 19 -5 10 -6
-24z"/>
<path d="M921 1134 c0 -11 3 -14 6 -6 3 7 2 16 -1 19 -3 4 -6 -2 -5 -13z"/>
<path d="M1576 1125 c-9 -26 -7 -32 5 -12 6 10 9 21 6 23 -2 3 -7 -2 -11 -11z"/>
<path d="M1211 1104 c0 -11 3 -14 6 -6 3 7 2 16 -1 19 -3 4 -6 -2 -5 -13z"/>
<path d="M1481 1016 c0 -55 1 -97 3 -95 12 13 56 112 45 102 -21 -21 -29 -15
-22 17 3 18 1 30 -5 30 -6 0 -13 10 -15 23 -2 12 -5 -23 -6 -77z"/>
<path d="M1511 1094 c0 -11 3 -14 6 -6 3 7 2 16 -1 19 -3 4 -6 -2 -5 -13z"/>
<path d="M1872 1080 c0 -19 2 -27 5 -17 2 9 2 25 0 35 -3 9 -5 1 -5 -18z"/>
</g>
</svg>
