<svg xmlns="http://www.w3.org/2000/svg" viewBox="0 0 24 28" fill="none">
  <!-- Main tall grass -->
  <path d="M12 27V8" stroke="#5C6B55" stroke-width="1.3" stroke-linecap="round"/>
  <!-- Grain/wheat top -->
  <path d="M12 8c0 0-1-2-1-4s1-3 1-3 1 1 1 3-1 4-1 4z" fill="#5C6B55" opacity="0.25" stroke="#5C6B55" stroke-width="0.8"/>
  <!-- Left blades -->
  <path d="M12 12C9 10 7 7.5 7 6" stroke="#5C6B55" stroke-width="1.1" stroke-linecap="round" fill="none"/>
  <path d="M7 6c0 0-.5-1.5 0-3s2-2 2-2" stroke="#5C6B55" stroke-width="0.9" stroke-linecap="round" fill="none"/>
  <path d="M12 18C9.5 16 7.5 13 7.5 11" stroke="#5C6B55" stroke-width="1.1" stroke-linecap="round" fill="none"/>
  <!-- Right blades -->
  <path d="M12 14c3-2 5-5 5-6.5" stroke="#5C6B55" stroke-width="1.1" stroke-linecap="round" fill="none"/>
  <path d="M17 7.5c0 0 .5-1.5 0-3s-2-2-2-2" stroke="#5C6B55" stroke-width="0.9" stroke-linecap="round" fill="none"/>
  <path d="M12 21c3-2 4.5-4.5 4.5-6.5" stroke="#5C6B55" stroke-width="1.1" stroke-linecap="round" fill="none"/>
  <!-- Small side grass -->
  <path d="M8 27V17" stroke="#5C6B55" stroke-width="1" stroke-linecap="round"/>
  <path d="M8 17c-2-1.5-3-3.5-3-5" stroke="#5C6B55" stroke-width="0.9" stroke-linecap="round" fill="none"/>
  <path d="M8 20c2-1.5 3-3 3-4.5" stroke="#5C6B55" stroke-width="0.9" stroke-linecap="round" fill="none"/>
  <!-- Small right grass -->
  <path d="M16 27V19" stroke="#5C6B55" stroke-width="1" stroke-linecap="round"/>
  <path d="M16 19c2-1.5 3-3 3-4.5" stroke="#5C6B55" stroke-width="0.9" stroke-linecap="round" fill="none"/>
  <path d="M16 22c-1.5-1-2.5-2.5-2.5-4" stroke="#5C6B55" stroke-width="0.9" stroke-linecap="round" fill="none"/>
</svg>
